<mxfile host="app.diagrams.net" modified="2024-04-17T21:41:04.486Z" agent="Mozilla/5.0 (Macintosh; Intel Mac OS X 10_15_7) AppleWebKit/537.36 (KHTML, like Gecko) Chrome/123.0.0.0 Safari/537.36" etag="sKVjgqrxXF0cLoKxDW4N" version="24.2.5" type="github">
  <diagram name="Page-1" id="DokuaXQm73Oxl8cDOyzR">
    <mxGraphModel dx="1795" dy="544" grid="1" gridSize="10" guides="1" tooltips="1" connect="1" arrows="1" fold="1" page="1" pageScale="1" pageWidth="850" pageHeight="1100" math="0" shadow="0">
      <root>
        <mxCell id="0" />
        <mxCell id="1" parent="0" />
        <mxCell id="uItesdKzaByjsYUjC3Jj-1" value="React Native Front End" style="whiteSpace=wrap;html=1;aspect=fixed;fillColor=#ffe6cc;strokeColor=#d79b00;noLabel=0;movableLabel=1;" vertex="1" parent="1">
          <mxGeometry x="-10" y="120" width="390" height="390" as="geometry">
            <mxPoint x="5" y="-172" as="offset" />
          </mxGeometry>
        </mxCell>
        <mxCell id="uItesdKzaByjsYUjC3Jj-3" value="NodeJS&lt;div&gt;backend&lt;/div&gt;&lt;div&gt;&lt;br&gt;&lt;/div&gt;" style="whiteSpace=wrap;html=1;aspect=fixed;fillColor=#d5e8d4;strokeColor=#82b366;movableLabel=1;imageAspect=1;" vertex="1" parent="1">
          <mxGeometry x="460" y="120" width="380" height="380" as="geometry">
            <mxPoint x="-3" y="-169" as="offset" />
          </mxGeometry>
        </mxCell>
        <mxCell id="uItesdKzaByjsYUjC3Jj-4" value="User Authentication" style="ellipse;whiteSpace=wrap;html=1;aspect=fixed;" vertex="1" parent="1">
          <mxGeometry x="20" y="270" width="100" height="100" as="geometry" />
        </mxCell>
        <mxCell id="uItesdKzaByjsYUjC3Jj-5" value="Group Management Admin&amp;nbsp;" style="ellipse;whiteSpace=wrap;html=1;aspect=fixed;" vertex="1" parent="1">
          <mxGeometry x="135" y="180" width="100" height="100" as="geometry" />
        </mxCell>
        <mxCell id="uItesdKzaByjsYUjC3Jj-10" style="edgeStyle=orthogonalEdgeStyle;rounded=0;orthogonalLoop=1;jettySize=auto;html=1;exitX=0.5;exitY=1;exitDx=0;exitDy=0;" edge="1" parent="1" source="uItesdKzaByjsYUjC3Jj-6" target="uItesdKzaByjsYUjC3Jj-1">
          <mxGeometry relative="1" as="geometry" />
        </mxCell>
        <mxCell id="uItesdKzaByjsYUjC3Jj-6" value="Main UI components" style="ellipse;whiteSpace=wrap;html=1;aspect=fixed;" vertex="1" parent="1">
          <mxGeometry x="250" y="280" width="100" height="100" as="geometry" />
        </mxCell>
        <mxCell id="uItesdKzaByjsYUjC3Jj-7" value="Notifications interface" style="ellipse;whiteSpace=wrap;html=1;aspect=fixed;" vertex="1" parent="1">
          <mxGeometry x="135" y="380" width="100" height="100" as="geometry" />
        </mxCell>
        <mxCell id="uItesdKzaByjsYUjC3Jj-15" value="Express JS" style="swimlane;whiteSpace=wrap;html=1;" vertex="1" parent="1">
          <mxGeometry x="490" y="160" width="80" height="310" as="geometry" />
        </mxCell>
      </root>
    </mxGraphModel>
  </diagram>
</mxfile>
